<svg id="visual" viewBox="0 0 4717 2984" width="4717" height="2984" xmlns="http://www.w3.org/2000/svg" xmlns:xlink="http://www.w3.org/1999/xlink" version="1.1"><path d="M0 240L60.5 269.8C121 299.7 242 359.3 363 374.2C484 389 605 359 726 373.8C847 388.7 968 448.3 1088.8 508C1209.7 567.7 1330.3 627.3 1451.2 662.2C1572 697 1693 707 1814 647.3C1935 587.7 2056 458.3 2177 413.7C2298 369 2419 409 2540 404C2661 399 2782 349 2903 358.8C3024 368.7 3145 438.3 3265.8 478.2C3386.7 518 3507.3 528 3628.2 572.8C3749 617.7 3870 697.3 3991 727.2C4112 757 4233 737 4354 702.2C4475 667.3 4596 617.7 4656.5 592.8L4717 568L4717 0L4656.5 0C4596 0 4475 0 4354 0C4233 0 4112 0 3991 0C3870 0 3749 0 3628.2 0C3507.3 0 3386.7 0 3265.8 0C3145 0 3024 0 2903 0C2782 0 2661 0 2540 0C2419 0 2298 0 2177 0C2056 0 1935 0 1814 0C1693 0 1572 0 1451.2 0C1330.3 0 1209.7 0 1088.8 0C968 0 847 0 726 0C605 0 484 0 363 0C242 0 121 0 60.5 0L0 0Z" fill="#b2e9dc"></path><path d="M0 717L60.5 791.7C121 866.3 242 1015.7 363 1010.7C484 1005.7 605 846.3 726 851.3C847 856.3 968 1025.7 1088.8 1135.2C1209.7 1244.7 1330.3 1294.3 1451.2 1299.2C1572 1304 1693 1264 1814 1209.3C1935 1154.7 2056 1085.3 2177 1040.7C2298 996 2419 976 2540 1025.7C2661 1075.3 2782 1194.7 2903 1314C3024 1433.3 3145 1552.7 3265.8 1473.2C3386.7 1393.7 3507.3 1115.3 3628.2 1040.7C3749 966 3870 1095 3991 1214.3C4112 1333.7 4233 1443.3 4354 1468.3C4475 1493.3 4596 1433.7 4656.5 1403.8L4717 1374L4717 566L4656.5 590.8C4596 615.7 4475 665.3 4354 700.2C4233 735 4112 755 3991 725.2C3870 695.3 3749 615.7 3628.2 570.8C3507.3 526 3386.7 516 3265.8 476.2C3145 436.3 3024 366.7 2903 356.8C2782 347 2661 397 2540 402C2419 407 2298 367 2177 411.7C2056 456.3 1935 585.7 1814 645.3C1693 705 1572 695 1451.2 660.2C1330.3 625.3 1209.7 565.7 1088.8 506C968 446.3 847 386.7 726 371.8C605 357 484 387 363 372.2C242 357.3 121 297.7 60.5 267.8L0 238Z" fill="#a3e5d5"></path><path d="M0 1135L60.5 1214.5C121 1294 242 1453 363 1433.2C484 1413.3 605 1214.7 726 1175C847 1135.3 968 1254.7 1088.8 1349.2C1209.7 1443.7 1330.3 1513.3 1451.2 1533.2C1572 1553 1693 1523 1814 1503C1935 1483 2056 1473 2177 1428.2C2298 1383.3 2419 1303.7 2540 1363.3C2661 1423 2782 1622 2903 1721.5C3024 1821 3145 1821 3265.8 1736.5C3386.7 1652 3507.3 1483 3628.2 1453.2C3749 1423.3 3870 1532.7 3991 1652C4112 1771.3 4233 1900.7 4354 1875.8C4475 1851 4596 1672 4656.5 1582.5L4717 1493L4717 1372L4656.5 1401.8C4596 1431.7 4475 1491.3 4354 1466.3C4233 1441.3 4112 1331.7 3991 1212.3C3870 1093 3749 964 3628.2 1038.7C3507.3 1113.3 3386.7 1391.7 3265.8 1471.2C3145 1550.7 3024 1431.3 2903 1312C2782 1192.7 2661 1073.3 2540 1023.7C2419 974 2298 994 2177 1038.7C2056 1083.3 1935 1152.7 1814 1207.3C1693 1262 1572 1302 1451.2 1297.2C1330.3 1292.3 1209.7 1242.7 1088.8 1133.2C968 1023.7 847 854.3 726 849.3C605 844.3 484 1003.7 363 1008.7C242 1013.7 121 864.3 60.5 789.7L0 715Z" fill="#95e1ce"></path><path d="M0 2090L60.5 2104.8C121 2119.7 242 2149.3 363 2194C484 2238.7 605 2298.3 726 2353.2C847 2408 968 2458 1088.8 2478C1209.7 2498 1330.3 2488 1451.2 2468C1572 2448 1693 2418 1814 2403C1935 2388 2056 2388 2177 2388C2298 2388 2419 2388 2540 2363.2C2661 2338.3 2782 2288.7 2903 2248.8C3024 2209 3145 2179 3265.8 2194C3386.7 2209 3507.3 2269 3628.2 2328.8C3749 2388.7 3870 2448.3 3991 2478.2C4112 2508 4233 2508 4354 2418.3C4475 2328.7 4596 2149.3 4656.5 2059.7L4717 1970L4717 1491L4656.5 1580.5C4596 1670 4475 1849 4354 1873.8C4233 1898.7 4112 1769.3 3991 1650C3870 1530.7 3749 1421.3 3628.2 1451.2C3507.3 1481 3386.7 1650 3265.8 1734.5C3145 1819 3024 1819 2903 1719.5C2782 1620 2661 1421 2540 1361.3C2419 1301.7 2298 1381.3 2177 1426.2C2056 1471 1935 1481 1814 1501C1693 1521 1572 1551 1451.2 1531.2C1330.3 1511.3 1209.7 1441.7 1088.8 1347.2C968 1252.7 847 1133.3 726 1173C605 1212.7 484 1411.3 363 1431.2C242 1451 121 1292 60.5 1212.5L0 1133Z" fill="#87d9c5"></path><path d="M0 2627L60.5 2617C121 2607 242 2587 363 2626.8C484 2666.7 605 2766.3 726 2781.3C847 2796.3 968 2726.7 1088.8 2701.7C1209.7 2676.7 1330.3 2696.3 1451.2 2721.2C1572 2746 1693 2776 1814 2801C1935 2826 2056 2846 2177 2816.2C2298 2786.3 2419 2706.7 2540 2696.7C2661 2686.7 2782 2746.3 2903 2746.3C3024 2746.3 3145 2686.7 3265.8 2656.8C3386.7 2627 3507.3 2627 3628.2 2627C3749 2627 3870 2627 3991 2637C4112 2647 4233 2667 4354 2652C4475 2637 4596 2587 4656.5 2562L4717 2537L4717 1968L4656.5 2057.7C4596 2147.3 4475 2326.7 4354 2416.3C4233 2506 4112 2506 3991 2476.2C3870 2446.3 3749 2386.7 3628.2 2326.8C3507.3 2267 3386.7 2207 3265.8 2192C3145 2177 3024 2207 2903 2246.8C2782 2286.7 2661 2336.3 2540 2361.2C2419 2386 2298 2386 2177 2386C2056 2386 1935 2386 1814 2401C1693 2416 1572 2446 1451.2 2466C1330.3 2486 1209.7 2496 1088.8 2476C968 2456 847 2406 726 2351.2C605 2296.3 484 2236.7 363 2192C242 2147.3 121 2117.7 60.5 2102.8L0 2088Z" fill="#7aceba"></path><path d="M0 2985L60.5 2985C121 2985 242 2985 363 2985C484 2985 605 2985 726 2985C847 2985 968 2985 1088.8 2985C1209.7 2985 1330.3 2985 1451.2 2985C1572 2985 1693 2985 1814 2985C1935 2985 2056 2985 2177 2985C2298 2985 2419 2985 2540 2985C2661 2985 2782 2985 2903 2985C3024 2985 3145 2985 3265.8 2985C3386.7 2985 3507.3 2985 3628.2 2985C3749 2985 3870 2985 3991 2985C4112 2985 4233 2985 4354 2985C4475 2985 4596 2985 4656.5 2985L4717 2985L4717 2535L4656.5 2560C4596 2585 4475 2635 4354 2650C4233 2665 4112 2645 3991 2635C3870 2625 3749 2625 3628.2 2625C3507.3 2625 3386.7 2625 3265.8 2654.8C3145 2684.7 3024 2744.3 2903 2744.3C2782 2744.3 2661 2684.7 2540 2694.7C2419 2704.7 2298 2784.3 2177 2814.2C2056 2844 1935 2824 1814 2799C1693 2774 1572 2744 1451.2 2719.2C1330.3 2694.3 1209.7 2674.7 1088.8 2699.7C968 2724.7 847 2794.3 726 2779.3C605 2764.3 484 2664.7 363 2624.8C242 2585 121 2605 60.5 2615L0 2625Z" fill="#6dc3ae"></path></svg>